<svg width="36" height="35" viewBox="0 0 36 35" fill="none" xmlns="http://www.w3.org/2000/svg">
<path d="M14.3892 22.9936C13.7872 22.9936 13.2774 22.7828 12.8596 22.3611C12.4418 21.9392 12.2329 21.4254 12.2329 20.8199C12.2329 20.2143 12.4439 19.7045 12.8658 19.2903C13.2878 18.8761 13.8014 18.669 14.4067 18.669C15.0122 18.669 15.5221 18.8786 15.9363 19.2978C16.3504 19.7172 16.5575 20.2306 16.5575 20.8378C16.5575 21.4397 16.3479 21.9496 15.9287 22.3674C15.5096 22.7849 14.9964 22.9936 14.3892 22.9936ZM24.6538 22.9936C24.0518 22.9936 23.5421 22.7828 23.1246 22.3611C22.7068 21.9392 22.4979 21.4254 22.4979 20.8199C22.4979 20.2143 22.7089 19.7045 23.1308 19.2903C23.5525 18.8761 24.0661 18.669 24.6717 18.669C25.2772 18.669 25.7871 18.8786 26.2013 19.2978C26.6154 19.7172 26.8225 20.2306 26.8225 20.8378C26.8225 21.4397 26.6129 21.9496 26.1938 22.3674C25.7743 22.7849 25.261 22.9936 24.6538 22.9936ZM19.5183 32.842C23.3533 32.842 26.6021 31.5097 29.2646 28.8453C31.9271 26.1806 33.2583 22.9286 33.2583 19.0895C33.2583 18.4017 33.2093 17.7293 33.1113 17.0724C33.0129 16.4154 32.8692 15.7953 32.68 15.212C32.1047 15.3508 31.5117 15.4521 30.9008 15.5157C30.2897 15.5796 29.6461 15.6115 28.97 15.6115C26.3631 15.6115 23.8967 15.0624 21.5708 13.964C19.245 12.8657 17.2642 11.3179 15.6283 9.3207C14.7164 11.5215 13.406 13.4431 11.6971 15.0853C9.98792 16.7272 8.01556 17.9775 5.78 18.8361V19.1028C5.78 22.9383 7.11083 26.1871 9.7725 28.849C12.4344 31.511 15.6831 32.842 19.5183 32.842ZM19.5221 34.9361C17.3321 34.9361 15.2736 34.5204 13.3467 33.689C11.4197 32.8579 9.74361 31.7299 8.31833 30.3049C6.89306 28.8799 5.76458 27.2042 4.93292 25.2778C4.10153 23.3514 3.68583 21.2931 3.68583 19.1028C3.68583 18.4808 3.72278 17.8645 3.79667 17.2536C3.87028 16.6425 3.98611 16.056 4.14417 15.494C2.89639 14.7824 1.89375 13.7968 1.13625 12.5374C0.37875 11.2782 0 9.88445 0 8.35612C0 6.05056 0.805556 4.09223 2.41667 2.48112C4.02778 0.870009 5.98611 0.0644531 8.29167 0.0644531C9.73195 0.0644531 11.0568 0.405285 12.2662 1.08695C13.4754 1.76862 14.455 2.69695 15.205 3.87195C15.8844 3.67112 16.5882 3.52056 17.3162 3.42029C18.044 3.31973 18.7783 3.26945 19.5192 3.26945C21.7094 3.26945 23.7678 3.68501 25.6942 4.51612C27.6206 5.34723 29.2963 6.47515 30.7213 7.89987C32.1463 9.32459 33.2743 11 34.1054 12.9261C34.9368 14.8522 35.3525 16.9101 35.3525 19.0999C35.3525 21.2899 34.9369 23.3483 34.1058 25.2753C33.2747 27.2022 32.1468 28.8783 30.7221 30.3036C29.2974 31.7289 27.6219 32.8574 25.6958 33.689C23.7697 34.5204 21.7118 34.9361 19.5221 34.9361Z" fill="#FF2C56"/>
</svg>
