<svg width="40" height="41" viewBox="0 0 40 41" fill="none" xmlns="http://www.w3.org/2000/svg">
<mask id="mask0_479_915" style="mask-type:alpha" maskUnits="userSpaceOnUse" x="0" y="0" width="40" height="41">
<rect y="0.5" width="40" height="40" fill="#D9D9D9"/>
</mask>
<g mask="url(#mask0_479_915)">
<path d="M18.417 35.9725C17.8505 35.9725 17.2718 35.9318 16.6808 35.8505C16.0896 35.769 15.4372 35.6498 14.7236 35.4931C12.6786 37.1279 10.3703 37.7391 7.7987 37.3268C5.22714 36.9147 3.29637 35.6106 2.00639 33.4144C0.94856 31.6364 0.606569 29.7374 0.980415 27.7173C1.35401 25.6972 2.33704 23.9972 3.92951 22.6172C3.91983 22.4936 3.91499 22.3568 3.91499 22.2067V21.7965C2.36635 20.4813 1.40548 18.8086 1.0324 16.7783C0.659321 14.7482 0.971623 12.8638 1.96931 11.1251C2.89258 9.54893 4.18231 8.41236 5.8385 7.71538C7.49443 7.01865 9.2105 6.85288 10.9867 7.21806C11.6256 5.73619 12.6131 4.5517 13.9492 3.66462C15.285 2.77753 16.7743 2.33398 18.417 2.33398C20.0597 2.33398 21.5489 2.77753 22.8848 3.66462C24.2209 4.5517 25.2084 5.73619 25.8473 7.21806C27.6235 6.84625 29.3421 7.0105 31.0031 7.71079C32.6639 8.41082 33.9511 9.54893 34.8647 11.1251C35.8624 12.8539 36.1747 14.7335 35.8016 16.7637C35.4285 18.7938 34.4676 20.4714 32.919 21.7965V22.2067C32.919 22.3568 32.9142 22.4936 32.9045 22.6172C34.4969 23.9972 35.48 25.6948 35.8536 27.71C36.2274 29.725 35.8854 31.6265 34.8276 33.4144C33.5376 35.6106 31.6068 36.9147 29.0353 37.3268C26.4637 37.7391 24.1518 37.1279 22.0996 35.4931C21.3932 35.6498 20.7444 35.769 20.1532 35.8505C19.5622 35.9318 18.9835 35.9725 18.417 35.9725ZM18.417 34.0512C21.9348 34.0512 24.915 32.8299 27.3576 30.3873C29.8002 27.9447 31.0215 24.9645 31.0215 21.4468C31.0215 20.5836 30.9383 19.7462 30.7719 18.9346C30.6052 18.1232 30.3669 17.3417 30.057 16.5902C29.3476 17.1554 28.5451 17.5973 27.6496 17.9159C26.7539 18.2344 25.7787 18.3937 24.7242 18.3937C22.2839 18.3937 20.2076 17.5377 18.4954 15.8257C16.7834 14.1134 15.9274 12.0372 15.9274 9.59684V9.33805C15.9274 9.25446 15.9326 9.1682 15.943 9.07926C13.0392 9.6557 10.6248 11.0925 8.70006 13.3896C6.77502 15.6867 5.8125 18.3724 5.8125 21.4468C5.8125 24.9645 7.03381 27.9447 9.47642 30.3873C11.919 32.8299 14.8992 34.0512 18.417 34.0512ZM13.7107 25.0163C13.1584 25.0163 12.6907 24.8228 12.3074 24.436C11.9241 24.0489 11.7325 23.5792 11.7325 23.027C11.7325 22.4681 11.926 21.9987 12.3131 21.6188C12.7002 21.2388 13.1699 21.0488 13.7221 21.0488C14.2807 21.0488 14.75 21.2407 15.13 21.6245C15.5099 22.0083 15.6999 22.4796 15.6999 23.0385C15.6999 23.5907 15.508 24.0584 15.1242 24.4417C14.7405 24.8247 14.2693 25.0163 13.7107 25.0163ZM23.1275 25.0163C22.5753 25.0163 22.1077 24.8228 21.7246 24.436C21.3414 24.0489 21.1497 23.5792 21.1497 23.027C21.1497 22.4681 21.3433 21.9987 21.7304 21.6188C22.1172 21.2388 22.5868 21.0488 23.139 21.0488C23.6979 21.0488 24.1673 21.2407 24.5472 21.6245C24.9272 22.0083 25.1172 22.4796 25.1172 23.0385C25.1172 23.5907 24.9253 24.0584 24.5415 24.4417C24.1577 24.8247 23.6864 25.0163 23.1275 25.0163Z" fill="#FF2C56"/>
</g>
</svg>
