<svg width="61" height="43" viewBox="0 0 61 43" fill="none" xmlns="http://www.w3.org/2000/svg">
<mask id="mask0_211_178" style="mask-type:alpha" maskUnits="userSpaceOnUse" x="21" y="2" width="40" height="41">
<rect x="21" y="2.5" width="40" height="40" fill="#D9D9D9"/>
</mask>
<g mask="url(#mask0_211_178)">
<path d="M39.417 37.9725C38.8505 37.9725 38.2718 37.9318 37.6808 37.8505C37.0896 37.769 36.4372 37.6498 35.7236 37.4931C33.6786 39.1279 31.3703 39.7391 28.7987 39.3268C26.2271 38.9147 24.2964 37.6106 23.0064 35.4144C21.9486 33.6364 21.6066 31.7374 21.9804 29.7173C22.354 27.6972 23.337 25.9972 24.9295 24.6172C24.9198 24.4936 24.915 24.3568 24.915 24.2067V23.7965C23.3663 22.4813 22.4055 20.8086 22.0324 18.7783C21.6593 16.7482 21.9716 14.8638 22.9693 13.1251C23.8926 11.5489 25.1823 10.4124 26.8385 9.71538C28.4944 9.01865 30.2105 8.85288 31.9867 9.21806C32.6256 7.73619 33.6131 6.5517 34.9492 5.66462C36.285 4.77753 37.7743 4.33398 39.417 4.33398C41.0597 4.33398 42.5489 4.77753 43.8848 5.66462C45.2209 6.5517 46.2084 7.73619 46.8473 9.21806C48.6235 8.84625 50.3421 9.0105 52.0031 9.71079C53.6639 10.4108 54.9511 11.5489 55.8647 13.1251C56.8624 14.8539 57.1747 16.7335 56.8016 18.7637C56.4285 20.7938 55.4676 22.4714 53.919 23.7965V24.2067C53.919 24.3568 53.9142 24.4936 53.9045 24.6172C55.4969 25.9972 56.48 27.6948 56.8536 29.71C57.2274 31.725 56.8854 33.6265 55.8276 35.4144C54.5376 37.6106 52.6068 38.9147 50.0353 39.3268C47.4637 39.7391 45.1518 39.1279 43.0996 37.4931C42.3932 37.6498 41.7444 37.769 41.1532 37.8505C40.5622 37.9318 39.9835 37.9725 39.417 37.9725ZM39.417 36.0512C42.9348 36.0512 45.915 34.8299 48.3576 32.3873C50.8002 29.9447 52.0215 26.9645 52.0215 23.4468C52.0215 22.5836 51.9383 21.7462 51.7719 20.9346C51.6052 20.1232 51.3669 19.3417 51.057 18.5902C50.3476 19.1554 49.5451 19.5973 48.6496 19.9159C47.7539 20.2344 46.7787 20.3937 45.7242 20.3937C43.2839 20.3937 41.2076 19.5377 39.4954 17.8257C37.7834 16.1134 36.9274 14.0372 36.9274 11.5968V11.338C36.9274 11.2545 36.9326 11.1682 36.943 11.0793C34.0392 11.6557 31.6248 13.0925 29.7001 15.3896C27.775 17.6867 26.8125 20.3724 26.8125 23.4468C26.8125 26.9645 28.0338 29.9447 30.4764 32.3873C32.919 34.8299 35.8992 36.0512 39.417 36.0512ZM34.7107 27.0163C34.1584 27.0163 33.6907 26.8228 33.3074 26.436C32.9241 26.0489 32.7325 25.5792 32.7325 25.027C32.7325 24.4681 32.926 23.9987 33.3131 23.6188C33.7002 23.2388 34.1699 23.0488 34.7221 23.0488C35.2807 23.0488 35.75 23.2407 36.13 23.6245C36.5099 24.0083 36.6999 24.4796 36.6999 25.0385C36.6999 25.5907 36.508 26.0584 36.1242 26.4417C35.7405 26.8247 35.2693 27.0163 34.7107 27.0163ZM44.1275 27.0163C43.5753 27.0163 43.1077 26.8228 42.7246 26.436C42.3414 26.0489 42.1497 25.5792 42.1497 25.027C42.1497 24.4681 42.3433 23.9987 42.7304 23.6188C43.1172 23.2388 43.5868 23.0488 44.139 23.0488C44.6979 23.0488 45.1673 23.2407 45.5472 23.6245C45.9272 24.0083 46.1172 24.4796 46.1172 25.0385C46.1172 25.5907 45.9253 26.0584 45.5415 26.4417C45.1577 26.8247 44.6864 27.0163 44.1275 27.0163Z" fill="#FF2C56"/>
</g>
<mask id="mask1_211_178" style="mask-type:alpha" maskUnits="userSpaceOnUse" x="0" y="0" width="40" height="41">
<rect y="0.5" width="40" height="40" fill="#D9D9D9"/>
</mask>
<g mask="url(#mask1_211_178)">
<path d="M14.8696 27.7241C14.2677 27.7241 13.7578 27.5133 13.3401 27.0916C12.9223 26.6696 12.7134 26.1559 12.7134 25.5503C12.7134 24.9448 12.9244 24.4349 13.3463 24.0208C13.7682 23.6066 14.2819 23.3995 14.8871 23.3995C15.4927 23.3995 16.0026 23.6091 16.4167 24.0283C16.8309 24.4477 17.038 24.961 17.038 25.5683C17.038 26.1702 16.8284 26.6801 16.4092 27.0978C15.9901 27.5153 15.4769 27.7241 14.8696 27.7241ZM25.1342 27.7241C24.5323 27.7241 24.0226 27.5133 23.6051 27.0916C23.1873 26.6696 22.9784 26.1559 22.9784 25.5503C22.9784 24.9448 23.1894 24.4349 23.6113 24.0208C24.033 23.6066 24.5466 23.3995 25.1521 23.3995C25.7577 23.3995 26.2676 23.6091 26.6817 24.0283C27.0959 24.4477 27.303 24.961 27.303 25.5683C27.303 26.1702 27.0934 26.6801 26.6742 27.0978C26.2548 27.5153 25.7414 27.7241 25.1342 27.7241ZM19.9988 37.5724C23.8338 37.5724 27.0826 36.2402 29.7451 33.5758C32.4076 30.911 33.7388 27.6591 33.7388 23.8199C33.7388 23.1321 33.6898 22.4598 33.5917 21.8028C33.4934 21.1459 33.3496 20.5258 33.1605 19.9424C32.5852 20.0813 31.9921 20.1826 31.3813 20.2462C30.7702 20.3101 30.1266 20.342 29.4505 20.342C26.8435 20.342 24.3771 19.7928 22.0513 18.6945C19.7255 17.5962 17.7446 16.0484 16.1088 14.0512C15.1969 16.252 13.8864 18.1735 12.1776 19.8158C10.4684 21.4577 8.49603 22.708 6.26047 23.5666V23.8333C6.26047 27.6688 7.5913 30.9176 10.253 33.5795C12.9149 36.2414 16.1635 37.5724 19.9988 37.5724ZM20.0026 39.6666C17.8126 39.6666 15.7541 39.2509 13.8271 38.4195C11.9002 37.5884 10.2241 36.4603 8.7988 35.0353C7.37352 33.6103 6.24505 31.9346 5.41339 30.0083C4.582 28.0819 4.1663 26.0235 4.1663 23.8333C4.1663 23.2113 4.20325 22.5949 4.27714 21.9841C4.35075 21.373 4.46658 20.7864 4.62464 20.2245C3.37686 19.5128 2.37422 18.5273 1.61672 17.2678C0.859219 16.0087 0.480469 14.6149 0.480469 13.0866C0.480469 10.781 1.28602 8.8227 2.89714 7.21159C4.50825 5.60048 6.46658 4.79492 8.77214 4.79492C10.2124 4.79492 11.5373 5.13575 12.7467 5.81742C13.9559 6.49909 14.9355 7.42742 15.6855 8.60242C16.3649 8.40159 17.0687 8.25103 17.7967 8.15075C18.5245 8.0502 19.2588 7.99992 19.9996 7.99992C22.1899 7.99992 24.2482 8.41548 26.1746 9.24659C28.101 10.0777 29.7767 11.2056 31.2017 12.6303C32.6267 14.0551 33.7548 15.7305 34.5859 17.6566C35.4173 19.5827 35.833 21.6406 35.833 23.8303C35.833 26.0203 35.4174 28.0788 34.5863 30.0058C33.7552 31.9327 32.6273 33.6088 31.2026 35.0341C29.7778 36.4594 28.1024 37.5878 26.1763 38.4195C24.2502 39.2509 22.1923 39.6666 20.0026 39.6666Z" fill="#FF2C56"/>
<path fill-rule="evenodd" clip-rule="evenodd" d="M19.9988 37.5724C23.8338 37.5724 27.0826 36.2402 29.7451 33.5758C32.4076 30.911 33.7388 27.6591 33.7388 23.8199C33.7388 23.1321 33.6898 22.4598 33.5917 21.8028C33.4934 21.1459 33.3496 20.5258 33.1605 19.9424C32.5852 20.0813 31.9921 20.1826 31.3813 20.2462C30.7702 20.3101 30.1266 20.342 29.4505 20.342C26.8435 20.342 24.3771 19.7928 22.0513 18.6945C19.7255 17.5962 17.7446 16.0484 16.1088 14.0512C15.1969 16.252 13.8864 18.1735 12.1776 19.8158C10.4684 21.4577 8.49603 22.708 6.26047 23.5666V23.8333C6.26047 27.6688 7.5913 30.9176 10.253 33.5795C12.9149 36.2414 16.1635 37.5724 19.9988 37.5724ZM13.3401 27.0916C13.7578 27.5133 14.2677 27.7241 14.8696 27.7241C15.4769 27.7241 15.9901 27.5153 16.4092 27.0978C16.8284 26.6801 17.038 26.1702 17.038 25.5683C17.038 24.961 16.8309 24.4477 16.4167 24.0283C16.0026 23.6091 15.4927 23.3995 14.8871 23.3995C14.2819 23.3995 13.7682 23.6066 13.3463 24.0208C12.9244 24.4349 12.7134 24.9448 12.7134 25.5503C12.7134 26.1559 12.9223 26.6696 13.3401 27.0916ZM23.6051 27.0916C24.0226 27.5133 24.5323 27.7241 25.1342 27.7241C25.7414 27.7241 26.2548 27.5153 26.6742 27.0978C27.0934 26.6801 27.303 26.1702 27.303 25.5683C27.303 24.961 27.0959 24.4477 26.6817 24.0283C26.2676 23.6091 25.7577 23.3995 25.1521 23.3995C24.5466 23.3995 24.033 23.6066 23.6113 24.0208C23.1894 24.4349 22.9784 24.9448 22.9784 25.5503C22.9784 26.1559 23.1873 26.6696 23.6051 27.0916Z" fill="white"/>
</g>
</svg>
