<svg width="17" height="17" viewBox="0 0 17 17" fill="none" xmlns="http://www.w3.org/2000/svg">
<path d="M8.5 1.56718L9.67011 3.77355L9.89682 4.20104L10.3315 3.98845L12.575 2.89123L12.2248 5.36399L12.1569 5.8431L12.6335 5.92661L15.0935 6.35764L13.3567 8.15228L13.0202 8.5L13.3567 8.84772L15.0935 10.6424L12.6335 11.0734L12.1569 11.1569L12.2248 11.636L12.575 14.1088L10.3315 13.0115L9.89682 12.799L9.67011 13.2264L8.5 15.4328L7.32989 13.2264L7.10318 12.799L6.6685 13.0115L4.42499 14.1088L4.77523 11.636L4.84308 11.1569L4.36646 11.0734L1.9065 10.6424L3.6433 8.84772L3.9798 8.5L3.6433 8.15228L1.9065 6.35764L4.36646 5.92661L4.84308 5.8431L4.77523 5.36399L4.42499 2.89123L6.6685 3.98845L7.10318 4.20104L7.32989 3.77355L8.5 1.56718Z" fill="#FF2C56" stroke="#FFCD00"/>
</svg>
